<svg width="1920" height="1080" viewBox="0 0 1920 1080" fill="none" xmlns="http://www.w3.org/2000/svg">
  <defs>
    <radialGradient id="skyGradient" cx="50%" cy="30%" r="70%">
      <stop offset="0%" style="stop-color:#0f2027;stop-opacity:1" />
      <stop offset="50%" style="stop-color:#232526;stop-opacity:1" />
      <stop offset="100%" style="stop-color:#181a1b;stop-opacity:1" />
    </radialGradient>
  </defs>
  
  <rect width="1920" height="1080" fill="url(#skyGradient)"/>
  
  <!-- Cloud shapes with subtle cobalt tint -->
  <ellipse cx="300" cy="200" rx="120" ry="40" fill="#38B6FF" opacity="0.05"/>
  <ellipse cx="250" cy="180" rx="80" ry="30" fill="#38B6FF" opacity="0.08"/>
  <ellipse cx="380" cy="190" rx="90" ry="35" fill="#38B6FF" opacity="0.06"/>
  
  <ellipse cx="800" cy="150" rx="150" ry="50" fill="#38B6FF" opacity="0.04"/>
  <ellipse cx="730" cy="130" rx="100" ry="35" fill="#38B6FF" opacity="0.07"/>
  <ellipse cx="900" cy="140" rx="110" ry="40" fill="#38B6FF" opacity="0.05"/>
  
  <ellipse cx="1400" cy="250" rx="180" ry="60" fill="#38B6FF" opacity="0.03"/>
  <ellipse cx="1320" cy="220" rx="120" ry="45" fill="#38B6FF" opacity="0.06"/>
  <ellipse cx="1520" cy="240" rx="140" ry="50" fill="#38B6FF" opacity="0.04"/>
  
  <ellipse cx="1600" cy="800" rx="200" ry="70" fill="#38B6FF" opacity="0.02"/>
  <ellipse cx="1500" cy="770" rx="130" ry="50" fill="#38B6FF" opacity="0.05"/>
  <ellipse cx="1750" cy="790" rx="160" ry="60" fill="#38B6FF" opacity="0.03"/>
  
  <ellipse cx="500" cy="900" rx="140" ry="45" fill="#38B6FF" opacity="0.04"/>
  <ellipse cx="420" cy="880" rx="90" ry="35" fill="#38B6FF" opacity="0.06"/>
  <ellipse cx="620" cy="890" rx="110" ry="40" fill="#38B6FF" opacity="0.05"/>
</svg>